# xmcd
#
# Track frame offsets:
#	150
#	13619
#	26665
#	38510
#	52255
#	66874
#	84845
#	94090
#	105035
#	117068
#
# Disc length: 1729 seconds
#
# Revision: 2
# Processed by: cddbd v1.5.1PL2 Copyright (c) Steve Scherf et al.
# Submitted via: EasyCDDAExtractor 9.1.3.1
#
DISCID=6c06bf0a
DTITLE=Tammy Wynette - Hall Of Fame 1998
DYEAR=2000
DGENRE=Country
TTITLE0=D-i-v-o-r-c-e
TTITLE1=My Elusive Dreams  With David Houston
TTITLE2=I Don't Wanna Play House
TTITLE3=Golden Ring  With George Jones
TTITLE4=Gentle On My Mind
TTITLE5=If It's The Last Thing I Do
TTITLE6=Your Good Girl's Gonna Go Bad
TTITLE7=A Pair Of Old Sneakers  With George Jones
TTITLE8=There Goes My Everything
TTITLE9=Take Me To Your World
EXTD=IMG Inc
EXTT0=
EXTT1=
EXTT2=
EXTT3=
EXTT4=
EXTT5=
EXTT6=
EXTT7=
EXTT8=
EXTT9=
PLAYORDER=
